Coordinates
version=1
nRows=24
nColumns=38
inDegrees=no

Units are S.I. units (second, meters, Newtons, ...)
If the header above contains a line with 'inDegrees', this indicates whether rotational values are in degrees (yes) or radians (no).

endheader
time	pelvis_tilt	pelvis_list	pelvis_rotation	pelvis_tx	pelvis_ty	pelvis_tz	hip_flexion_r	hip_adduction_r	hip_rotation_r	knee_angle_r	ankle_angle_r	subtalar_angle_r	mtp_angle_r	hip_flexion_l	hip_adduction_l	hip_rotation_l	knee_angle_l	ankle_angle_l	subtalar_angle_l	mtp_angle_l	lumbar_extension	lumbar_bending	lumbar_rotation	arm_flex_r	arm_add_r	arm_rot_r	elbow_flex_r	pro_sup_r	wrist_flex_r	wrist_dev_r	arm_flex_l	arm_add_l	arm_rot_l	elbow_flex_l	pro_sup_l	wrist_flex_l	wrist_dev_l
21	0.76725	1.4477	0.587161	0.763966	-0.677687	0.963881	-0.130289	0.0642093	-0.233333	0.225753	0.180567	0	0	0.214325	-0.132827	-0.278369	0.230283	0.062074	0	0	-0.262013	0.114722	0.159078	1.08878	-0.267811	0.581837	0.960712	1.5708	0	0	1.14849	-0.151253	0.758872	0.712622	1.5708	0	0
21.01	0.76256	1.44736	0.591012	0.763928	-0.677424	0.963874	-0.129721	0.0637392	-0.232265	0.225895	0.180322	0	0	0.214738	-0.132825	-0.279425	0.230578	0.0624301	0	0	-0.262004	0.114347	0.159519	1.09009	-0.268391	0.58405	0.960978	1.5708	0	0	1.15	-0.151797	0.762372	0.711254	1.5708	0	0
21.02	0.756978	1.44696	0.595725	0.763896	-0.677168	0.963876	-0.129052	0.0631726	-0.230883	0.225956	0.180045	0	0	0.215279	-0.13284	-0.280426	0.230897	0.0627339	0	0	-0.261949	0.113857	0.160583	1.09097	-0.269869	0.585827	0.962304	1.5708	0	0	1.1516	-0.151785	0.764564	0.70982	1.5708	0	0
21.03	0.732969	1.44445	0.618604	0.763764	-0.67688	0.963764	-0.124678	0.0627587	-0.228393	0.22669	0.179383	0	0	0.219161	-0.133143	-0.281122	0.231257	0.062597	0	0	-0.259406	0.117185	0.158163	1.09569	-0.26551	0.593414	0.958349	1.5708	0	0	1.13032	-0.119778	0.424425	0.780103	0.84715	0	0
21.04	0.726415	1.4441	0.624396	0.763688	-0.676705	0.963744	-0.123623	0.061872	-0.225961	0.227174	0.179298	0	0	0.219857	-0.13304	-0.282098	0.231482	0.0628224	0	0	-0.25946	0.116831	0.159558	1.09683	-0.266389	0.594567	0.958532	1.5708	0	0	1.13211	-0.119568	0.424648	0.778304	0.827856	0	0
21.05	0.737388	1.4462	0.613183	0.76373	-0.676623	0.963805	-0.126262	0.0604368	-0.223892	0.22733	0.179986	0	0	0.217137	-0.132411	-0.283464	0.231635	0.063375	0	0	-0.262127	0.112125	0.163861	1.09405	-0.271762	0.588699	0.962813	1.5708	0	0	1.15898	-0.152895	0.78262	0.705637	1.5708	0	0
21.06	0.725225	1.44563	0.62399	0.763684	-0.676446	0.963741	-0.124204	0.0590763	-0.220615	0.228474	0.180205	0	0	0.218311	-0.132163	-0.284927	0.231586	0.0635175	0	0	-0.261185	0.111776	0.164375	1.09469	-0.270891	0.589274	0.962761	1.5708	0	0	1.15851	-0.152678	0.776802	0.70404	1.5708	0	0
21.07	0.741375	1.4518	0.602519	0.762925	-0.675027	0.963766	-0.130552	0.0509471	-0.219582	0.230162	0.183748	0	0	0.211269	-0.127547	-0.281203	0.235731	0.0682271	0	0	-0.265303	0.109631	0.167819	1.09546	-0.27215	0.593374	0.963741	1.5708	0	0	1.15678	-0.152551	0.77645	0.702178	1.5708	0	0
21.08	0.734909	1.45182	0.6076	0.762934	-0.674867	0.96377	-0.129433	0.0497099	-0.217146	0.231464	0.184272	0	0	0.211478	-0.127267	-0.282699	0.235772	0.0684933	0	0	-0.265366	0.108952	0.168946	1.09579	-0.271818	0.593456	0.964747	1.5708	0	0	1.15871	-0.153283	0.779401	0.699881	1.5708	0	0
21.09	0.697323	1.44403	0.648564	0.763646	-0.676013	0.963608	-0.1189	0.0563078	-0.21315	0.231915	0.180779	0	0	0.221543	-0.131803	-0.287541	0.232345	0.0641388	0	0	-0.259257	0.110608	0.166671	1.09515	-0.268842	0.587345	0.964975	1.5708	0	0	1.16352	-0.154989	0.785048	0.698287	1.5708	0	0
21.1	0.690461	1.44337	0.654793	0.763606	-0.675921	0.963579	-0.117614	0.0559908	-0.211535	0.232321	0.180683	0	0	0.222719	-0.131948	-0.288196	0.232868	0.0643292	0	0	-0.258934	0.110716	0.1672	1.09581	-0.267891	0.586848	0.964843	1.5708	0	0	1.16513	-0.1555	0.786957	0.697017	1.5708	0	0
21.11	0.683586	1.44256	0.661266	0.763541	-0.67585	0.96355	-0.116376	0.0558548	-0.21038	0.232288	0.180372	0	0	0.224114	-0.132209	-0.288928	0.233459	0.0645009	0	0	-0.258517	0.111075	0.167714	1.09667	-0.267341	0.587524	0.964695	1.5708	0	0	1.16645	-0.155774	0.787941	0.695744	1.5708	0	0
21.12	0.679587	1.44177	0.665148	0.763477	-0.675801	0.963554	-0.115683	0.0560733	-0.209403	0.231732	0.179687	0	0	0.225332	-0.132717	-0.289721	0.234187	0.0647258	0	0	-0.258498	0.111638	0.168063	1.09784	-0.26696	0.58885	0.964156	1.5708	0	0	1.1677	-0.156071	0.788539	0.694716	1.5708	0	0
21.13	0.678229	1.44093	0.666537	0.763429	-0.675786	0.963577	-0.115313	0.0566046	-0.208857	0.230945	0.178845	0	0	0.226434	-0.133531	-0.29056	0.235005	0.0649709	0	0	-0.258811	0.112422	0.168226	1.09935	-0.266381	0.590197	0.963012	1.5708	0	0	1.16899	-0.156602	0.788764	0.694037	1.5708	0	0
21.14	0.677874	1.43999	0.667026	0.763388	-0.675785	0.963598	-0.115005	0.0572605	-0.209114	0.230183	0.178069	0	0	0.227559	-0.134467	-0.291087	0.235842	0.0652388	0	0	-0.259207	0.113294	0.16833	1.10081	-0.265659	0.590468	0.96178	1.5708	0	0	1.17052	-0.156953	0.789636	0.693678	1.5708	0	0
21.15	0.701645	1.44588	0.639108	0.762621	-0.674528	0.963704	-0.123052	0.0508758	-0.211765	0.229978	0.180617	0	0	0.220496	-0.131105	-0.28711	0.240882	0.0702039	0	0	-0.264657	0.112469	0.171499	1.10291	-0.26707	0.594929	0.960777	1.5708	0	0	1.16902	-0.155937	0.788343	0.693753	1.5708	0	0
21.16	0.709053	1.44548	0.631935	0.762597	-0.674561	0.963773	-0.124136	0.0517852	-0.212362	0.228879	0.179845	0	0	0.220532	-0.132262	-0.2874	0.241906	0.0707681	0	0	-0.266278	0.113532	0.171473	1.10561	-0.26624	0.596459	0.957974	1.5708	0	0	1.17046	-0.156285	0.788292	0.694103	1.5708	0	0
21.17	0.684791	1.43682	0.660625	0.763338	-0.675902	0.963613	-0.114897	0.060419	-0.210716	0.227571	0.175621	0	0	0.230923	-0.138376	-0.29109	0.239401	0.0667698	0	0	-0.26104	0.116787	0.168766	1.10725	-0.263311	0.592355	0.954651	1.5708	0	0	1.17469	-0.157253	0.79034	0.694173	1.5708	0	0
21.18	0.671927	1.43365	0.672717	0.763328	-0.675899	0.963476	-0.11127	0.0617747	-0.210095	0.227591	0.174981	0	0	0.235013	-0.13997	-0.291107	0.240426	0.0667128	0	0	-0.25919	0.121211	0.16607	1.11344	-0.257835	0.600804	0.947492	1.5708	0	0	1.15455	-0.124709	0.440876	0.759343	0.80825	0	0
21.19	0.689144	1.43466	0.655636	0.763396	-0.676054	0.963533	-0.114218	0.0626795	-0.21132	0.226813	0.175183	0	0	0.233106	-0.140905	-0.290965	0.241573	0.0675294	0	0	-0.262437	0.118234	0.16927	1.11273	-0.262553	0.595558	0.949586	1.5708	0	0	1.17921	-0.155908	0.794654	0.691292	1.5708	0	0
21.2	0.69161	1.43365	0.652515	0.763432	-0.676174	0.963487	-0.113749	0.063815	-0.211457	0.226696	0.175051	0	0	0.233898	-0.142146	-0.290948	0.242431	0.0680694	0	0	-0.263193	0.118788	0.169503	1.11604	-0.262066	0.597786	0.946526	1.5708	0	0	1.1801	-0.154666	0.790546	0.689727	1.5708	0	0
21.21	0.694348	1.43316	0.649105	0.763475	-0.676314	0.963461	-0.113541	0.0646212	-0.211517	0.226678	0.174915	0	0	0.234185	-0.14297	-0.290896	0.243051	0.0684122	0	0	-0.264234	0.118727	0.169618	1.11944	-0.261452	0.599617	0.94311	1.5708	0	0	1.18188	-0.153726	0.789315	0.687757	1.5708	0	0
21.22	0.694129	1.43299	0.648461	0.763517	-0.676451	0.963436	-0.113126	0.0648175	-0.211117	0.226804	0.175005	0	0	0.23438	-0.143221	-0.290996	0.243218	0.0683003	0	0	-0.265039	0.118083	0.169609	1.12256	-0.26057	0.600284	0.940079	1.5708	0	0	1.18347	-0.153124	0.787787	0.686236	1.5708	0	0
21.23	0.701334	1.4384	0.635075	0.762798	-0.675207	0.963456	-0.118257	0.057346	-0.211125	0.227964	0.178862	0	0	0.228321	-0.138788	-0.287615	0.246866	0.0723796	0	0	-0.268944	0.118735	0.17009	1.13029	-0.256633	0.61385	0.932408	1.5708	0	0	1.15947	-0.120088	0.434324	0.753077	0.845818	0	0
